<?xml version="1.0" encoding="UTF-8"?>
<svg version="1.1" xmlns="http://www.w3.org/2000/svg" width="1203" height="490">
<path d="M0 0 C15.84 0 31.68 0 48 0 C53.41914579 14.84025945 53.41914579 14.84025945 55.78515625 21.3203125 C57.63907539 26.39784186 59.49308858 31.47533686 61.34727478 36.55276871 C62.11888495 38.6658262 62.89038436 40.77892411 63.66186523 42.89202881 C64.67528126 45.667776 65.68917094 48.44334955 66.70336914 51.21881104 C68.98014791 57.45144234 71.25080273 63.68605486 73.5 69.92871094 C73.87358643 70.96373749 74.24717285 71.99876404 74.63208008 73.06515503 C75.31662869 74.96363731 75.99889744 76.8629438 76.6784668 78.76321411 C76.97406494 79.58240326 77.26966309 80.40159241 77.57421875 81.24560547 C77.82776123 81.95280731 78.08130371 82.66000916 78.3425293 83.38864136 C78.88394514 85.0131354 78.88394514 85.0131354 80 86 C80.36536865 85.09386963 80.7307373 84.18773926 81.10717773 83.25415039 C88.36201242 65.27145977 95.6619632 47.30755752 103.07131958 29.38790894 C103.81099576 27.59838806 104.54967599 25.80845518 105.287323 24.01809692 C106.32782705 21.4938658 107.37232132 18.97132289 108.41796875 16.44921875 C108.87342072 15.34194931 108.87342072 15.34194931 109.33807373 14.21231079 C111.36732209 9.33560939 113.62534542 4.74930916 116 0 C130.19 0 144.38 0 159 0 C159 48.51 159 97.02 159 147 C148.44 147 137.88 147 127 147 C126.67 115.65 126.34 84.3 126 52 C115.84577416 77.38054106 115.84577416 77.38054106 105.7421875 102.78125 C102.7890625 110.19140625 102.7890625 110.19140625 101.33691406 113.82861328 C100.34012054 116.33191671 99.34695503 118.83633998 98.359375 121.34326172 C96.89602242 125.0571084 95.41348029 128.76302241 93.9296875 132.46875 C93.27188797 134.15103699 93.27188797 134.15103699 92.60079956 135.86730957 C91.97831833 137.40929016 91.97831833 137.40929016 91.34326172 138.98242188 C90.9857785 139.88279175 90.62829529 140.78316162 90.25997925 141.71081543 C88.82270931 144.32210936 87.54521655 145.47760923 85 147 C80.32678161 148.10457889 77.2454523 148.35858461 73 146 C69.50608768 142.92313305 68.20214604 139.10387184 66.53833008 134.85668945 C66.2062706 134.02719788 65.87421112 133.1977063 65.53208923 132.34307861 C64.43718754 129.60269128 63.35334164 126.8580719 62.26953125 124.11328125 C61.51220742 122.21157825 60.7541976 120.31014831 59.99552917 118.40898132 C58.00111758 113.40577539 56.01605408 108.39891141 54.03289795 103.39123535 C52.00736973 98.28137317 49.97304557 93.17501625 47.93945312 88.06835938 C43.95100645 78.04898884 39.97242416 68.0257328 36 58 C36.00452431 59.58400604 36.00452431 59.58400604 36.00914001 61.20001221 C36.03300398 71.14712097 36.02024457 81.09359675 35.97153378 91.04062271 C35.94766951 96.1547287 35.93675543 101.26818228 35.95532227 106.38232422 C35.97276299 111.31699492 35.95633631 116.25049278 35.91632271 121.18502045 C35.90702129 123.06846849 35.9099691 124.95201777 35.92530632 126.83542633 C35.94469893 129.47265376 35.92072531 132.10616404 35.88647461 134.74316406 C35.9022908 135.52359573 35.91810699 136.3040274 35.93440247 137.10810852 C35.87974548 139.29205322 35.87974548 139.29205322 35 143 C29.34101054 148.08654226 22.13078923 148.2792567 14.9296875 148.23046875 C9.71427201 147.8201894 4.68020707 146.34010353 0 144 C0 96.48 0 48.96 0 0 Z " fill="#000000" transform="translate(258,53)"/>
<path d="M0 0 C0.99 0.66 1.98 1.32 3 2 C3 -0.97 3 -3.94 3 -7 C12.57 -7 22.14 -7 32 -7 C32.1130446 8.49058857 32.20507543 23.98097168 32.25906086 39.47186184 C32.2847981 46.66522977 32.31986197 53.85832246 32.37719727 61.05151367 C32.42717057 67.32409405 32.45932357 73.596475 32.47044247 79.86924893 C32.47693803 83.18808919 32.49476606 86.50622898 32.52865028 89.82491875 C32.56504555 93.53783601 32.56994063 97.24957901 32.56762695 100.96264648 C32.58560333 102.05237762 32.60357971 103.14210876 32.62210083 104.26486206 C32.56502292 112.75241052 30.19870083 118.28259093 24.6875 124.6875 C6.45566101 140.37536145 -14.49761951 143.41678279 -38 142 C-48.8788831 140.70338893 -58.99149627 137.12233336 -66.75 129.1875 C-68.57218731 124.54092236 -67.74162009 121.58211952 -66 117 C-64.13588422 112.92347311 -62.12372204 108.94691737 -60 105 C-55.31734239 105.50883504 -52.42844191 106.71541152 -48.5625 109.375 C-39.53174331 115.33847668 -30.92615501 117.99652228 -20 117 C-12.46067372 115.45113539 -5.94385211 113.00591779 -1.25 106.625 C2.09608225 100.96570976 2.39530406 94.42602253 3 88 C2.27554688 88.39832031 1.55109375 88.79664063 0.8046875 89.20703125 C-14.35503994 97.51456189 -27.88298818 101.2351964 -45.1875 96.4375 C-51.03490561 94.30368361 -55.51929247 91.28742211 -60 87 C-60.63679687 86.3915625 -61.27359375 85.783125 -61.9296875 85.15625 C-71.64467969 74.98261011 -74.94073569 60.8892905 -75.375 47.125 C-74.8194638 29.20291924 -70.03021639 11.71165418 -56.8359375 -1.1015625 C-39.03824523 -15.88056491 -18.42622635 -11.06205698 0 0 Z M-38.4609375 24.03515625 C-44.53448756 31.78895239 -45.88829488 40.34296567 -45 50 C-43.07473364 58.54771873 -39.17180174 65.05692005 -32.19140625 70.37890625 C-26.48540674 73.7835255 -20.45828216 73.90478349 -14 73 C-7.20551362 71.14141852 -0.15261053 69.0141256 4 63 C7.77119234 52.32171344 7.79969283 38.55197334 3.1953125 28.16796875 C-0.56040163 21.3561343 -4.78573982 18.55018546 -12.3125 16.3125 C-22.89634182 15.08182072 -30.97638359 15.95252155 -38.4609375 24.03515625 Z " fill="#000000" transform="translate(661,313)"/>
<path d="M0 0 C7.63316751 21.0617438 15.25467445 42.12763997 22.828125 63.2109375 C23.07420376 63.8959647 23.32028252 64.5809919 23.57381821 65.2867775 C25.81884469 71.53677924 28.06322477 77.78701291 30.30645752 84.03765869 C37.1820881 103.20427418 37.1820881 103.20427418 44.1328125 122.34375 C44.57481239 123.55359055 44.57481239 123.55359055 45.02574158 124.78787231 C46.3132894 128.30952424 47.60486165 131.82961467 48.90356445 135.34716797 C49.32597412 136.49846191 49.74838379 137.64975586 50.18359375 138.8359375 C50.53993896 139.80063965 50.89628418 140.7653418 51.26342773 141.75927734 C52 144 52 144 52 146 C40.96086055 146.16207546 30.01559238 145.65764731 19 145 C17.16038326 141.21135025 15.32937928 137.41860225 13.5 133.625 C12.97535156 132.54476562 12.45070313 131.46453125 11.91015625 130.3515625 C11.16572266 128.8046875 11.16572266 128.8046875 10.40625 127.2265625 C9.94541016 126.27346191 9.48457031 125.32036133 9.00976562 124.33837891 C8 122 8 122 8 120 C-12.79 120 -33.58 120 -55 120 C-55.66 122.97 -56.32 125.94 -57 129 C-57.46518044 130.54432315 -57.95854569 132.08120223 -58.5078125 133.59765625 C-58.7464502 134.26547119 -58.98508789 134.93328613 -59.23095703 135.62133789 C-59.52599121 136.42692139 -59.82102539 137.23250488 -60.125 138.0625 C-61.548125 141.9915625 -61.548125 141.9915625 -63 146 C-74.22 146 -85.44 146 -97 146 C-96.15291685 140.91750111 -94.89596714 136.57802705 -93.09765625 131.8125 C-92.6398024 130.57910133 -92.6398024 130.57910133 -92.17269897 129.32078552 C-91.14101647 126.54528129 -90.10171359 123.77269235 -89.0625 121 C-88.32182794 119.01199344 -87.58169125 117.02378735 -86.84204102 115.03540039 C-85.1801001 110.56969102 -83.51513421 106.10512268 -81.84863281 101.64111328 C-78.96561465 93.91372517 -76.09674087 86.18112158 -73.22977638 78.44776535 C-70.91923507 72.21551386 -68.60752054 65.98369729 -66.2959404 59.75183105 C-65.7267903 58.21741848 -65.15767019 56.68299477 -64.58858109 55.14855957 C-53.4871026 25.21710316 -53.4871026 25.21710316 -48.28515625 11.47265625 C-47.95962265 10.60748886 -47.63408905 9.74232147 -47.2986908 8.85093689 C-45.11768752 3.11768752 -45.11768752 3.11768752 -44 2 C-40.04033354 1.46875603 -36.04547144 1.23873313 -32.0625 0.9375 C-30.97775391 0.84662109 -29.89300781 0.75574219 -28.77539062 0.66210938 C-19.17413451 -0.07902067 -9.62178706 -0.0921039 0 0 Z M-24 29 C-24.1952124 29.60134766 -24.3904248 30.20269531 -24.59155273 30.82226562 C-28.74626728 43.57190283 -33.08024153 56.21503328 -37.94116211 68.71484375 C-42.498627 80.53918566 -42.498627 80.53918566 -44 93 C-29.15 93 -14.3 93 1 93 C-0.84132445 86.86225182 -2.69317714 80.75485199 -4.70703125 74.67578125 C-4.95490891 73.92644821 -5.20278656 73.17711517 -5.45817566 72.40507507 C-5.97918671 70.83268359 -6.50102925 69.26056738 -7.02368164 67.6887207 C-7.80463002 65.33620736 -8.57912216 62.98163093 -9.35351562 60.62695312 C-11.80545227 53.21400164 -14.33850461 45.83315153 -17.13671875 38.54296875 C-17.8186731 36.75475708 -17.8186731 36.75475708 -18.5144043 34.93041992 C-20.02310897 31.95441627 -21.17328064 30.69360622 -24 29 Z " fill="#000000" transform="translate(134,54)"/>
<path d="M0 0 C6.75532479 5.04111883 11.23291504 10.47735021 15 18 C15.39058594 18.76957031 15.78117188 19.53914063 16.18359375 20.33203125 C21.45506368 31.97560768 20.96641275 43.4366342 20 56 C-5.08 56 -30.16 56 -56 56 C-52.25592661 67.16139417 -52.25592661 67.16139417 -44 74 C-30.19791225 79.72531047 -21.0389876 77.63104301 -7.625 72.25 C-3.98185966 70.99374471 -1.7884352 70.3411417 2 71 C7.35737837 74.21442702 9.18075346 77.86395683 11.43359375 83.59765625 C12.08374193 86.35518131 12.28525892 87.4651838 11 90 C-5.5084793 102.37531684 -24.82492668 104.01771533 -44.7890625 101.52734375 C-58.2758081 98.55598951 -71.75969 90.65473258 -79.69140625 79.1953125 C-88.24864983 64.83957849 -90.80517524 47.4178707 -87.27734375 30.99609375 C-86.36717146 27.87497663 -85.31641669 24.97059819 -84 22 C-83.649375 21.19820313 -83.29875 20.39640625 -82.9375 19.5703125 C-76.20390305 6.0563575 -64.52866884 -2.46030771 -50.5078125 -7.2734375 C-33.79315138 -12.11600287 -14.40354136 -9.94719707 0 0 Z M-54 24 C-56.27268662 28.20702383 -58 32.18450851 -58 37 C-41.17 37 -24.34 37 -7 37 C-9.1746269 27.21417897 -11.00871576 22.79759837 -19 17 C-30.92627473 10.08276066 -45.37628091 13.71640577 -54 24 Z " fill="#000000" transform="translate(801,313)"/>
<path d="M0 0 C1.21623047 0.93392578 1.21623047 0.93392578 2.45703125 1.88671875 C3.17503906 2.43714844 3.89304687 2.98757813 4.6328125 3.5546875 C9.27585522 7.63876197 12.06005385 12.38054709 14.83203125 17.82421875 C15.16614014 18.480271 15.50024902 19.13632324 15.84448242 19.81225586 C21.62079519 31.85107297 20.45703125 42.23375356 20.45703125 55.88671875 C-4.62296875 55.88671875 -29.70296875 55.88671875 -55.54296875 55.88671875 C-53.22557453 64.53329267 -53.22557453 64.53329267 -47.69921875 72.0078125 C-46.631875 72.44287109 -46.631875 72.44287109 -45.54296875 72.88671875 C-44.475625 73.39912109 -44.475625 73.39912109 -43.38671875 73.921875 C-33.29867761 78.3437997 -25.23073372 78.98650004 -14.98046875 75.01171875 C-12.48779048 73.99872313 -10.01619932 72.94708412 -7.54296875 71.88671875 C-4.66085573 70.92601441 -2.84446831 70.78089992 0.14453125 70.82421875 C0.95277344 70.83324219 1.76101563 70.84226562 2.59375 70.8515625 C3.20863281 70.86316406 3.82351563 70.87476563 4.45703125 70.88671875 C5.82724919 73.64989498 7.17533301 76.42330353 8.51953125 79.19921875 C8.90947266 79.98490234 9.29941406 80.77058594 9.70117188 81.58007812 C10.06533203 82.33740234 10.42949219 83.09472656 10.8046875 83.875 C11.14508057 84.57149658 11.48547363 85.26799316 11.83618164 85.9855957 C12.45703125 87.88671875 12.45703125 87.88671875 11.45703125 90.88671875 C-5.31632275 101.61270625 -25.46324851 104.73138942 -44.96484375 101.19140625 C-59.91458166 97.56075561 -73.16544161 89.53175622 -81.30078125 76.1796875 C-89.45430686 61.12899714 -90.42074335 43.55631923 -85.91796875 27.13671875 C-81.25343781 13.4619248 -72.39999139 3.30335702 -59.78515625 -3.5703125 C-40.86121021 -12.57628682 -17.44700889 -12.18480709 0 0 Z M-52.54296875 22.88671875 C-56.64814066 28.01818364 -56.64673014 29.71680983 -57.54296875 36.88671875 C-41.04296875 36.88671875 -24.54296875 36.88671875 -7.54296875 36.88671875 C-8.57549604 28.6265004 -10.03031486 23.47129854 -16.61328125 18.2421875 C-28.70456693 10.50108763 -43.15626087 11.93555956 -52.54296875 22.88671875 Z " fill="#000000" transform="translate(389.54296875,313.11328125)"/>
<path d="M0 0 C11.68229633 9.05331681 17.44135107 19.49042195 20.46484375 33.91015625 C20.46484375 41.17015625 20.46484375 48.43015625 20.46484375 55.91015625 C-4.61515625 55.91015625 -29.69515625 55.91015625 -55.53515625 55.91015625 C-51.99628921 65.6420406 -50.17996158 70.17245325 -41.66015625 74.96484375 C-33.15883039 78.68417382 -24.74715179 78.66800074 -16.09765625 75.59765625 C-13.07338633 74.39689379 -10.10087035 73.19160137 -7.1875 71.7421875 C-3.31466908 70.52729356 0.43843085 70.7522577 4.46484375 70.91015625 C5.83506169 73.67333248 7.18314551 76.44674103 8.52734375 79.22265625 C8.91728516 80.00833984 9.30722656 80.79402344 9.70898438 81.60351562 C10.07314453 82.36083984 10.43730469 83.11816406 10.8125 83.8984375 C11.15289307 84.59493408 11.49328613 85.29143066 11.84399414 86.0090332 C12.46484375 87.91015625 12.46484375 87.91015625 11.46484375 90.91015625 C-5.30851025 101.63614375 -25.45543601 104.75482692 -44.95703125 101.21484375 C-59.64092363 97.6487556 -72.00309964 90.10561322 -80.47265625 77.41015625 C-88.44606279 63.9960723 -90.08839445 46.09498127 -86.81640625 30.89453125 C-85.9013779 27.78048314 -84.84944113 24.87594384 -83.53515625 21.91015625 C-83.18453125 21.10835938 -82.83390625 20.3065625 -82.47265625 19.48046875 C-75.7390593 5.96651375 -64.06382509 -2.55015146 -50.04296875 -7.36328125 C-33.34833071 -12.20004554 -14.31716995 -9.90218362 0 0 Z M-51.97265625 22.28515625 C-55.92518748 27.07062646 -57.53515625 30.65017243 -57.53515625 36.91015625 C-40.70515625 36.91015625 -23.87515625 36.91015625 -6.53515625 36.91015625 C-8.65628758 27.36506527 -10.54306106 22.22989146 -18.72265625 16.97265625 C-30.05781566 10.37724792 -43.25776859 13.02363585 -51.97265625 22.28515625 Z " fill="#000000" transform="translate(1154.53515625,313.08984375)"/>
<path d="M0 0 C5.58191792 4.99202022 9.1318727 11.05677484 9.85276794 18.52032471 C10.13993364 23.89740311 10.03275694 29.26639462 9.92750549 34.6473999 C9.9144255 36.6256331 9.90447269 38.6038892 9.89749146 40.58215332 C9.87095475 45.75134539 9.80235904 50.91912777 9.7245636 56.08776855 C9.65254121 61.37698301 9.62089713 66.6664286 9.58570862 71.95599365 C9.51097129 82.30696837 9.38799937 92.65653306 9.24391174 103.0067749 C-0.32608826 103.0067749 -9.89608826 103.0067749 -19.75608826 103.0067749 C-19.76019714 100.76098633 -19.76430603 98.51519775 -19.76853943 96.20135498 C-19.78574491 88.77721098 -19.83025973 81.35341109 -19.88817883 73.92947865 C-19.9224546 69.42872785 -19.94755968 64.92831669 -19.9516449 60.4274292 C-19.95592665 56.08288822 -19.98437843 51.73911348 -20.02952003 47.39481163 C-20.0424991 45.73829297 -20.04680124 44.08168263 -20.04224205 42.4251194 C-20.03733854 40.10229626 -20.06341217 37.78171483 -20.09666443 35.45916748 C-20.08372597 34.43417397 -20.08372597 34.43417397 -20.07052612 33.38847351 C-20.16214257 29.56538795 -20.69792499 28.07691163 -23.17425537 25.09080505 C-28.54604601 20.7547484 -35.1197667 21.56017475 -41.75608826 22.0067749 C-47.96343329 23.07955801 -53.50979624 24.40746697 -58.75608826 28.0067749 C-60.23357829 30.96175497 -59.92174163 33.63681259 -59.96141052 36.93499756 C-59.97625992 38.00345161 -59.97625992 38.00345161 -59.9914093 39.0934906 C-60.02304683 41.45257216 -60.04779056 43.81167387 -60.07249451 46.1708374 C-60.0930621 47.80466237 -60.11405852 49.43848199 -60.13546753 51.07229614 C-60.19070839 55.37619706 -60.24010876 59.68014616 -60.28831482 63.98413086 C-60.33851516 68.37453508 -60.39420887 72.76486919 -60.44944763 77.1552124 C-60.55705385 85.77234228 -60.65798581 94.38953159 -60.75608826 103.0067749 C-70.65608826 103.0067749 -80.55608826 103.0067749 -90.75608826 103.0067749 C-90.75608826 67.6967749 -90.75608826 32.3867749 -90.75608826 -3.9932251 C-80.85608826 -3.9932251 -70.95608826 -3.9932251 -60.75608826 -3.9932251 C-60.42608826 -1.0232251 -60.09608826 1.9467749 -59.75608826 5.0067749 C-55.89252467 3.28868869 -55.89252467 3.28868869 -53.63108826 1.1317749 C-38.99207606 -9.68836455 -14.74736402 -11.0910638 0 0 Z " fill="#000000" transform="translate(199.75608825683594,309.99322509765625)"/>
<path d="M0 0 C1.03833984 0.54914063 1.03833984 0.54914063 2.09765625 1.109375 C9.49725697 5.72877892 14.29619398 14.88858194 17 23 C17.09116335 25.66222191 17.12603073 28.29770913 17.11352539 30.9597168 C17.11367142 31.76970123 17.11381744 32.57968567 17.1139679 33.41421509 C17.113271 36.09257685 17.10548903 38.77086913 17.09765625 41.44921875 C17.09579128 43.30581118 17.09436775 45.1624041 17.09336853 47.01899719 C17.0895496 51.90655881 17.07972461 56.79409074 17.06866455 61.68164062 C17.05843704 66.66861571 17.05386803 71.65559558 17.04882812 76.64257812 C17.03810181 86.42840057 17.02051003 96.21419317 17 106 C7.1 106 -2.8 106 -13 106 C-13.01458252 103.84509033 -13.02916504 101.69018066 -13.04418945 99.4699707 C-13.09455651 92.34522241 -13.16115529 85.22069218 -13.23571491 78.09615803 C-13.28041711 73.77709638 -13.31967348 69.45812903 -13.34643555 65.13891602 C-13.37247016 60.96957836 -13.41287344 56.80060359 -13.46318626 52.63149071 C-13.47985396 51.04195868 -13.49136886 49.45236388 -13.49761391 47.86275673 C-13.50725634 45.63378606 -13.53531548 43.40574352 -13.56762695 41.17700195 C-13.57873001 39.90903275 -13.58983307 38.64106354 -13.60127258 37.33467102 C-14.12626648 32.94399743 -15.59833172 30.3050015 -18.8125 27.3125 C-24.60310552 23.83813669 -30.38791626 23.21469387 -37 24 C-42.98746657 25.58693598 -47.75910607 27.46347287 -51 33 C-52.80493401 36.81564781 -53.23783187 39.77160456 -53.1953125 43.98022461 C-53.18540283 45.75247658 -53.18540283 45.75247658 -53.17529297 47.56053162 C-53.15869629 48.82832962 -53.14209961 50.09612762 -53.125 51.40234375 C-53.11342859 53.40463666 -53.10186848 55.40692971 -53.0909729 57.40922642 C-53.06472868 61.62815467 -53.02038468 65.84693075 -52.97924805 70.06573486 C-52.94605635 73.54076522 -52.9168493 77.01572009 -52.89794922 80.49085999 C-52.88291556 83.09415168 -52.85883873 85.6974105 -52.82470703 88.30052185 C-52.81479736 90.07750206 -52.81479736 90.07750206 -52.8046875 91.89038086 C-52.79421387 92.92786972 -52.78374023 93.96535858 -52.77294922 95.0342865 C-53.02207647 98.28836055 -53.85156085 100.95605792 -55 104 C-57.60329148 104.34181553 -60.20727523 104.67351967 -62.8125 105 C-63.53115234 105.09539062 -64.24980469 105.19078125 -64.99023438 105.2890625 C-71.1292593 106.04629906 -76.68461377 106 -83 106 C-83 70.69 -83 35.38 -83 -1 C-73.43 -1 -63.86 -1 -54 -1 C-53 0 -53 0 -52.90234375 1.84765625 C-52.93489583 3.8984375 -52.96744792 5.94921875 -53 8 C-52.33355469 7.54109375 -51.66710937 7.0821875 -50.98046875 6.609375 C-44.56227542 2.33656378 -38.38424938 -0.773954 -31 -3 C-30.40316406 -3.19207031 -29.80632813 -3.38414062 -29.19140625 -3.58203125 C-19.45196029 -5.43964394 -8.65169094 -5.01639328 0 0 Z " fill="#000000" transform="translate(924,307)"/>
<path d="M0 0 C3.21692727 3.16217106 4.56765144 5.88458273 4.68359375 10.4140625 C3.59523827 16.27745508 -0.57688415 20.88204964 -4.8125 24.875 C-7.75 26.75 -7.75 26.75 -10.125 26.875 C-12.46791683 25.87089279 -14.31862558 24.76776715 -16.4375 23.375 C-22.97992927 19.12426912 -30.90094212 16.49932594 -38.75 17.75 C-45.86633932 19.3898521 -50.68858819 21.85810579 -55.41015625 27.45703125 C-58.66351482 33.02473236 -59.11149806 38.78151722 -59.0625 45.0625 C-59.05758545 45.80798096 -59.0526709 46.55346191 -59.04760742 47.3215332 C-58.89463312 54.54741164 -57.92379969 61.15768116 -53.5625 67.125 C-48.53371224 71.81853525 -43.13191778 74.36915514 -36.2265625 74.84375 C-27.55514481 74.51549444 -20.41872946 71.41800142 -13.22265625 66.76171875 C-10.75 65.75 -10.75 65.75 -8.1953125 66.37109375 C-5.71556946 67.76941531 -3.69208987 69.23843876 -1.5625 71.125 C-0.88832031 71.71023438 -0.21414063 72.29546875 0.48046875 72.8984375 C3.28005629 75.82780724 4.15785201 78.05230805 4.6875 82.0625 C4.12092405 86.8379259 2.79204292 89.60461021 -0.75 92.75 C-14.63597389 101.62821845 -31.41924215 105.31216436 -47.71484375 102.0234375 C-62.87176545 98.51527378 -74.56411909 90.57202223 -83.21484375 77.50390625 C-90.98420533 63.56650189 -93.44269212 46.44832252 -90.03125 30.765625 C-89.10773369 27.6524813 -88.03825655 24.72909326 -86.75 21.75 C-86.399375 20.87472656 -86.04875 19.99945313 -85.6875 19.09765625 C-80.85019749 8.19692941 -72.37871948 0.00841911 -61.75 -5.25 C-42.37433666 -12.6743196 -17.21565505 -13.20275325 0 0 Z " fill="#000000" transform="translate(1049.75,313.25)"/>
<path d="M0 0 C14.85 0.495 14.85 0.495 30 1 C31.01690612 4.05071836 31.29159483 6.56294537 31.53515625 9.76171875 C31.66567383 11.43911133 31.66567383 11.43911133 31.79882812 13.15039062 C31.9293457 14.90125977 31.9293457 14.90125977 32.0625 16.6875 C32.15337891 17.86634766 32.24425781 19.04519531 32.33789062 20.25976562 C32.56197932 23.17291863 32.78142903 26.08642781 33 29 C39.93 29 46.86 29 54 29 C53.88631998 32.60485338 53.75956436 36.20841799 53.625 39.8125 C53.5940625 40.83666016 53.563125 41.86082031 53.53125 42.91601562 C53.49257813 43.89892578 53.45390625 44.88183594 53.4140625 45.89453125 C53.36693115 47.25348511 53.36693115 47.25348511 53.31884766 48.63989258 C53 51 53 51 51 54 C49.12060547 54.52416992 49.12060547 54.52416992 46.8671875 54.73046875 C46.06152344 54.81103516 45.25585938 54.89160156 44.42578125 54.97460938 C43.58402344 55.04486328 42.74226563 55.11511719 41.875 55.1875 C41.02550781 55.26935547 40.17601562 55.35121094 39.30078125 55.43554688 C37.2016616 55.63602459 35.10094176 55.81961611 33 56 C32.94907279 62.40458765 32.91417134 68.80912259 32.89013672 75.21386719 C32.88011146 77.39031933 32.86648778 79.56675812 32.84912109 81.74316406 C32.82471972 84.88089303 32.81348187 88.01844308 32.8046875 91.15625 C32.79436493 92.12115356 32.78404236 93.08605713 32.77340698 94.0802002 C32.77247847 99.73721371 33.32001172 104.58592339 35 110 C35.33 110.33 35.66 110.66 36 111 C37.58694341 110.93534675 39.1711716 110.79783033 40.75 110.625 C41.61109375 110.53476562 42.4721875 110.44453125 43.359375 110.3515625 C45.93678681 110.00841596 48.45716773 109.53966584 51 109 C51.89842584 112.07699674 52.76453679 115.16219193 53.625 118.25 C53.88023437 119.12269531 54.13546875 119.99539063 54.3984375 120.89453125 C54.63046875 121.73886719 54.8625 122.58320313 55.1015625 123.453125 C55.32150879 124.22817383 55.54145508 125.00322266 55.76806641 125.80175781 C56.05488846 128.52022707 55.46623042 129.7284187 54 132 C52.265625 133.4140625 52.265625 133.4140625 50.25 134.625 C49.59515625 135.02976562 48.9403125 135.43453125 48.265625 135.8515625 C39.94163225 140.07096572 30.70671277 140.24013197 21.75 137.875 C11.67922211 134.34368827 5.73130434 128.46260868 1 119 C0.90855217 116.9983125 0.88248303 114.99351744 0.88647461 112.98974609 C0.88655014 111.72858978 0.88662567 110.46743347 0.88670349 109.1680603 C0.89181051 107.78651897 0.89702651 106.40497804 0.90234375 105.0234375 C0.90420856 103.6138209 0.90563217 102.20420366 0.90663147 100.79458618 C0.91045167 97.08246068 0.92027772 93.37037422 0.93133545 89.65826416 C0.94156025 85.87113981 0.94613138 82.08400917 0.95117188 78.296875 C0.96190042 70.86456552 0.97897089 63.43228823 1 56 C-0.35544922 55.90912109 -0.35544922 55.90912109 -1.73828125 55.81640625 C-2.91777344 55.73261719 -4.09726563 55.64882813 -5.3125 55.5625 C-6.48425781 55.48128906 -7.65601563 55.40007812 -8.86328125 55.31640625 C-12 55 -12 55 -15 54 C-15 45.75 -15 37.5 -15 29 C-9.72 29 -4.44 29 1 29 C0.67520031 23.94551773 0.67520031 23.94551773 0.34179688 18.89160156 C-0.04784296 12.5553156 0 6.39151256 0 0 Z " fill="#000000" transform="translate(239,277)"/>
<path d="M0 0 C11.55 0 23.1 0 35 0 C35 48.51 35 97.02 35 147 C6 147 6 147 0 144 C0 96.48 0 48.96 0 0 Z " fill="#000000" transform="translate(198,53)"/>
<path d="M0 0 C11.22 0 22.44 0 34 0 C34 48.18 34 96.36 34 146 C8.14577259 148.15451895 8.14577259 148.15451895 1 144 C0 143 0 143 -0.12304783 140.64366817 C-0.12212604 139.59005879 -0.12120424 138.53644941 -0.12025452 137.45091248 C-0.12162918 136.24631378 -0.12300385 135.04171509 -0.12442017 133.8006134 C-0.12088056 132.45358252 -0.11724575 131.10655188 -0.11352539 129.75952148 C-0.11324352 128.35052492 -0.11340125 126.94152821 -0.1139679 125.53253174 C-0.11425589 121.6959237 -0.10835894 117.85934666 -0.10139394 114.02274585 C-0.09516063 110.01753059 -0.09455662 106.0123147 -0.09336853 102.00709534 C-0.09025515 94.41747996 -0.08204167 86.82787892 -0.07201904 79.23826987 C-0.06085812 70.59996076 -0.05534751 61.96165099 -0.05032361 53.32333648 C-0.03985906 35.5488812 -0.02151349 17.77444558 0 0 Z " fill="#000000" transform="translate(50,267)"/>
<path d="M0 0 C9.9 0 19.8 0 30 0 C30 47.19 30 94.38 30 143 C20.98253783 147.50873108 20.98253783 147.50873108 15.5625 147.3125 C14.53253906 147.28800781 13.50257813 147.26351562 12.44140625 147.23828125 C8.28373488 146.95040616 4.14213532 146.46023726 0 146 C0 97.82 0 49.64 0 0 Z " fill="#000000" transform="translate(484,267)"/>
<path d="M0 0 C9.57 0 19.14 0 29 0 C29.09023575 18.59307711 29.16394422 37.1859774 29.20724869 55.77921772 C29.22788863 64.41205487 29.25603642 73.04474649 29.30175781 81.67749023 C29.34158194 89.2003351 29.36742239 96.72307459 29.37635398 104.24602193 C29.38157629 108.2307449 29.39387987 112.21516637 29.42292023 116.19979286 C29.45001974 119.94839801 29.45845626 123.69657674 29.45243073 127.44527054 C29.45353344 128.82277047 29.46152027 130.20028428 29.4768219 131.57769966 C29.49665985 133.4551633 29.48956904 135.33285447 29.48101807 137.21040344 C29.48470524 138.26216924 29.48839241 139.31393503 29.49219131 140.39757252 C29 143 29 143 27.08834457 144.81936932 C23.18016939 147.02882823 19.75847322 147.13662346 15.3125 147.125 C14.33925781 147.12757813 13.36601562 147.13015625 12.36328125 147.1328125 C8.22814712 146.96952033 4.1130457 146.45700508 0 146 C0 97.82 0 49.64 0 0 Z " fill="#000000" transform="translate(430,267)"/>
<path d="M0 0 C9.57 0 19.14 0 29 0 C29 35.31 29 70.62 29 107 C19.43 107 9.86 107 0 107 C0 71.69 0 36.38 0 0 Z " fill="#000000" transform="translate(539,306)"/>
<path d="M0 0 C6.66327432 4.97915004 10.33695393 10.84758536 12 19 C12.37381396 25.02894824 10.82268887 30.26364648 7 35 C0.90366418 41.46835632 -4.46260845 45.55497427 -13.40234375 46.2734375 C-19.84838383 46.44930008 -24.35358324 46.37496237 -30 43 C-35.85735814 37.41507712 -38.05214024 30.46688183 -38.375 22.4375 C-38.0614696 15.03034422 -35.748072 8.93792048 -30.6796875 3.50390625 C-22.36706483 -3.9387908 -9.77188598 -5.80818926 0 0 Z " fill="#C41E3A" transform="translate(467,29)"/>
<path d="M0 0 C4.96184652 4.35674329 6.16477886 8.30122242 6.625 14.75390625 C6.49675699 19.87561147 4.42560749 23.20027468 1.25 27.0625 C-3.62858322 31.03343983 -8.2435932 31.78395748 -14.4375 31.25 C-20.63321827 29.84295711 -23.85497871 27.46094006 -27.4375 22.25 C-29.25243882 16.80518355 -29.17770057 11.24854153 -27.1875 5.875 C-23.97607104 1.05785656 -21.59455234 -1.27927647 -15.71875 -2.49609375 C-10.01349453 -3.1310965 -5.12795713 -2.61059636 0 0 Z " fill="#000000" transform="translate(564.4375,260.75)"/>
</svg>
